<?xml version="1.0" encoding="UTF-8"?>
<svg id="Layer_2" data-name="Layer 2" xmlns="http://www.w3.org/2000/svg" viewBox="0 0 113.78 201.28">
  <defs>
    <style>
      .cls-1 {
        fill: #fff;
      }
    </style>
  </defs>
  <g id="Layer_1-2" data-name="Layer 1">
    <path class="cls-1" d="M94.34,65.28c-2.38,1.45-.09,11.49-5.91,24.45-.32,.71-1.36,.65-1.57-.11-3.46-12.11-13.51-21.43-26.03-23.85,4.55-7.27,7.7-15.02,8.2-22.87C71.18,9.07,52.15-1.32,49.76,.13c-2.38,1.46,.52,8.33-6.04,24.65-3.59,8.93-27.42,35.21-31.76,40.37C7.63,70.31,.79,83.47,.17,93.24c-2.14,33.83,16.89,44.22,19.27,42.76,2.13-1.3,.03-6.94,4.27-19.81,.23-.69,1.16-.78,1.53-.15,8.51,14.64,23.26,16.46,28.02,16.65,.65,.03,1.03,.75,.67,1.3-5.07,7.7-8.64,15.99-9.17,24.39-2.14,33.83,16.89,44.22,19.27,42.76s-.52-8.33,6.04-24.65c3.59-8.93,26.58-34.83,31.8-40.37,5.22-5.54,11.14-18.33,11.76-28.1,2.14-33.83-16.89-44.22-19.27-42.76Zm-39.85,47.44c-7.77,.14-14.11-6.19-13.96-13.96,.14-7.33,6.11-13.31,13.44-13.44,7.77-.14,14.11,6.19,13.96,13.96-.14,7.33-6.11,13.31-13.44,13.44Z"/>
  </g>
</svg>