<?xml version="1.0" encoding="UTF-8"?>
<svg id="Layer_2" data-name="Layer 2" xmlns="http://www.w3.org/2000/svg" viewBox="0 0 734.36 125.08">
  <defs>
    <style>
      .cls-1 {
        fill: #fff;
        stroke-width: 0px;
      }
    </style>
  </defs>
  <g id="Layer_1-2" data-name="Layer 1">
    <g>
      <path class="cls-1" d="M63.05.54c4.61-.72,14.86-.72,18.45,0v89.78c0,25.89-16.15,34.75-40.62,34.75S0,116.21,0,90.33V.54C5.13-.18,13.97-.18,18.71.54v84.53c0,15.57,9.74,17.56,22.17,17.56s22.17-1.99,22.17-17.56V.54Z"/>
      <path class="cls-1" d="M121.09,38.01v84.9c-5.89.91-12.69.91-18.71,0V.54c6.41-.72,13.97-.72,20.38,0l43.18,86.89V.54c6.66-.72,12.56-.72,18.71,0v122.37c-6.92.72-13.97.72-20.89,0l-42.67-84.9Z"/>
      <path class="cls-1" d="M230.14,21.9h-30.88c-.64-5.97-.64-15.21,0-21.36h80.35c.51,6.15.51,15.39,0,21.36h-30.88v101.01c-5.25.72-13.2.72-18.58,0V21.9Z"/>
      <path class="cls-1" d="M294.08,122.91V.54h66.63c.64,6.15.64,15.21,0,21.36h-47.93v28.78h46.64c.64,6.15.64,15.02,0,21h-46.64v29.87h47.93c.64,5.97.64,15.39,0,21.36h-66.63Z"/>
      <path class="cls-1" d="M403.64,21.9h-30.88c-.64-5.97-.64-15.21,0-21.36h80.35c.51,6.15.51,15.39,0,21.36h-30.88v101.01c-5.25.72-13.2.72-18.58,0V21.9Z"/>
      <path class="cls-1" d="M529.47,72.04h-43.18v50.87c-5.25.72-13.2.72-18.71,0V.54c5.77-.72,13.33-.72,18.71,0v48.33h43.18V.54c5.38-.72,13.46-.72,18.71,0v122.37c-5.25.72-13.07.72-18.71,0v-50.87Z"/>
      <path class="cls-1" d="M569.96,122.91V.54h66.63c.64,6.15.64,15.21,0,21.36h-47.92v28.78h46.64c.64,6.15.64,15.02,0,21h-46.64v29.87h47.92c.64,5.97.64,15.39,0,21.36h-66.63Z"/>
      <path class="cls-1" d="M732.95,48.51c0,15.75-6.41,24.44-17.43,28.42,7.69,14.66,13.84,31.13,18.84,45.98-4.87.72-14.87.72-19.86,0-4.74-13.94-10.64-29.51-17.94-43.44h-22.04v43.44c-5.64.72-13.07.72-18.71,0V.54h41.65c21.91,0,35.5,8.33,35.5,31.68v16.29ZM714.37,37.65c0-13.58-8.33-15.02-18.2-15.02h-21.66v35.12h21.66c9.87,0,18.2-1.27,18.2-14.48v-5.61Z"/>
    </g>
  </g>
</svg>